# xmcd
#
# Track frame offsets:
#	150
#	13187
#	32862
#	51800
#	69362
#	89400
#	104575
#	121537
#	136375
#	156187
#	172837
#
# Disc length: 2560 seconds
#
# Revision: 0
# Processed by: cddbd v1.4PL0 Copyright (c) Steve Scherf et al.
# Submitted via: dBpowerAMP V4.0
#
DISCID=8a09fe0b
DTITLE=Various Artist - Love Songs-Favourite Male Artists
DYEAR=1900
DGENRE=Country
TTITLE0=Papa Loved Mama
TTITLE1=I Swear
TTITLE2=Don't Take The Girl
TTITLE3=Rope The Moon
TTITLE4=Whenever You Come Around
TTITLE5=Queen Of My Double-wide Trailer
TTITLE6=Your Love Amazes Me
TTITLE7=No Doubt About It
TTITLE8=Which Bridge To Cross
TTITLE9=Love Me
TTITLE10=If Tomorrow Never Comes
EXTD=
EXTT0=
EXTT1=
EXTT2=
EXTT3=
EXTT4=
EXTT5=
EXTT6=
EXTT7=
EXTT8=
EXTT9=
EXTT10=
PLAYORDER=
